inDegrees=yes
name=ik_lifting_orientations
DataType=double
version=3
OpenSimVersion=4.5-2024-01-10-34fd6af
endheader
time	pelvis_tilt	pelvis_list	pelvis_rotation	pelvis_tx	pelvis_ty	pelvis_tz	hip_flexion_r	hip_adduction_r	hip_rotation_r	knee_angle_r	knee_angle_r_beta	ankle_angle_r	subtalar_angle_r	mtp_angle_r	hip_flexion_l	hip_adduction_l	hip_rotation_l	knee_angle_l	knee_angle_l_beta	ankle_angle_l	subtalar_angle_l	mtp_angle_l	lumbar_extension	lumbar_bending	lumbar_rotation	arm_flex_r	arm_add_r	arm_rot_r	elbow_flex_r	pro_sup_r	wrist_flex_r	wrist_dev_r	arm_flex_l	arm_add_l	arm_rot_l	elbow_flex_l	pro_sup_l	wrist_flex_l	wrist_dev_l
6.71	0.01542030252662012	0.006886590568059421	-175.6141251607631	0	0.9400000003403366	0	43.3275310485465	-9.999615657779849	0	56.80584422005299	0.9914490160149149	-4.999987239176844	0	0	43.3275310485465	-9.999615657779849	0	56.80584422005299	0.9914490160149149	-4.999987239176844	0	0	0.006658275554213889	0.007372824447897078	0.00979669030934718	-2.949607828480654	-14.16201766378743	42.28308910483653	15.62355025784704	-5.417851881288888	0	0	0	-12.10212145906749	0	72.79555662980134	5.417641587200353	0	0
6.72	-0.00223246801261055	-0.003960524379919544	-175.621002722971	0	0.9400000003403366	0	43.33445530730979	-9.999619550927074	0	56.81890590543355	0.9916769854306653	-4.999987393013339	0	0	43.33445530730979	-9.999619550927074	0	56.81890590543355	0.9916769854306653	-4.999987393013339	0	0	-0.006344578973360399	-0.004854151619897868	0.00426758734296019	-3.708639089953651	-14.37889173466804	40.63633220796782	15.97513998526194	-5.400703010123226	0	0	0	-12.10937672582921	0	72.80468558813351	5.400492716093702	0	0
6.73	-0.0004661412801266864	-0.004676728025714913	-175.6323887878736	0	0.9400000003403366	0	43.3384255006056	-9.999621848127843	0	56.82630476900935	0.9918061199609688	-4.99998748456938	0	0	43.3384255006056	-9.999621848127843	0	56.82630476900935	0.9918061199609688	-4.99998748456938	0	0	-0.003672891440803434	0.005031804942022574	0.002687092490639431	-4.238979687999814	-14.16501842702904	39.25541222475608	15.44159468255782	-5.390923227882867	0	0	0	-12.11349786406667	0	72.80991996078022	5.390712933887005	0	0
6.74	-0.001504444763201916	-0.003855201839789358	-175.630407216852	0	0.9400000003403366	0	43.3424062808262	-9.999624139835841	0	56.83372888394202	0.9919356952105903	-4.99998757575236	0	0	43.3424062808262	-9.999624139835841	0	56.83372888394202	0.9919356952105903	-4.99998757575236	0	0	-0.005115037252783894	0.005107098450498236	0.000148890910695872	-4.764244228301831	-13.94030878809348	37.86342552935339	14.94617929704331	-5.381108903907357	0	0	0	-12.1176361089451	0	72.81516828127863	5.380898609945273	0	0
6.75	0.005877943438014586	0.006702112119727416	-175.6225601758896	0	0.9400000003403366	0	43.35140197730937	-9.999629082764924	0	56.85076450312223	0.992233022855401	-4.999987769583788	0	0	43.35140197730937	-9.999629082764924	0	56.85076450312223	0.992233022855401	-4.999987769583788	0	0	0.001417903035754384	0.004241652169210281	0.01140769451751603	-5.767219258424035	-14.90214819301804	36.09638471285855	16.00369938471631	-5.358742519068462	0	0	0	-12.12712519865348	0	72.82702812753156	5.358532225183327	0	0
6.76	0.01115684748211711	-0.003085086794056022	-175.6244330546589	0	0.9400000003403366	0	43.35660228321314	-9.999631993104394	0	56.8605088811655	0.9924030943358151	-4.999987884292536	0	0	43.35660228321314	-9.999631993104394	0	56.8605088811655	0.9924030943358151	-4.999987884292536	0	0	0.0008508714996543551	-0.002456840866664021	0.01153820372957146	-5.743263218372873	-14.48630410269017	34.84568814054748	15.87524166343004	-5.345861034735226	0	0	0	-12.13257478554099	0	72.8338842193639	5.345650740894416	0	0
6.77	0.007124037524215427	-0.01200861041869894	-175.6228331473931	0	0.9400000003403366	0	43.36018497075013	-9.99963408635363	0	56.86709040774416	0.9925179636444204	-4.999987967793337	0	0	43.36018497075013	-9.99963408635363	0	56.86709040774416	0.9925179636444204	-4.999987967793337	0	0	-0.001836018181736392	-0.007792348846834691	0.009337002537353147	-5.309313262142775	-13.3729520875549	33.48440723831899	14.71641246623761	-5.337063508165055	0	0	0	-12.13627225377163	0	72.83860772627439	5.336853214354527	0	0
